<svg xmlns="http://www.w3.org/2000/svg" xmlns:xlink="http://www.w3.org/1999/xlink" viewBox="0 0 80.76 82.39"><defs><style>.cls-1{fill:url(#Degradado_sin_nombre_10);}.cls-2{fill:url(#Degradado_sin_nombre_10-2);}.cls-3{fill:#252525;}.cls-4{fill:#fff;}</style><linearGradient id="Degradado_sin_nombre_10" x1="-21.45" y1="122.58" x2="25.19" y2="36.79" gradientUnits="userSpaceOnUse"><stop offset="0" stop-color="#fff"/><stop offset="1" stop-color="#2ac17f"/></linearGradient><linearGradient id="Degradado_sin_nombre_10-2" x1="4.95" y1="136.94" x2="51.59" y2="51.15" xlink:href="#Degradado_sin_nombre_10"/></defs><title>Recurso 3</title><g id="Capa_2" data-name="Capa 2"><g id="Capa_1-2" data-name="Capa 1"><path class="cls-1" d="M61.41,52.6A187.27,187.27,0,0,0,3,58.37L0,.68A200.3,200.3,0,0,1,62.75,5.4Q62.08,29,61.41,52.6Z"/><path class="cls-2" d="M75.45,82.39,27.66,77.61l-5.31-47.8L80.76,24Z"/><rect class="cls-3" x="14.85" y="15.66" width="51.06" height="51.06"/><path class="cls-4" d="M44.54,21h9.58V48.34a13,13,0,0,1-1.77,6.78,12,12,0,0,1-4.92,4.63,15.13,15.13,0,0,1-7,1.64q-6.51,0-10.12-3.28T26.65,48.8h9.63a6.57,6.57,0,0,0,.94,4A3.74,3.74,0,0,0,40.38,54a3.59,3.59,0,0,0,3.08-1.49,7,7,0,0,0,1.08-4.17Z"/></g></g></svg>